<svg width="32" height="32" viewBox="0 0 32 32" fill="none" xmlns="http://www.w3.org/2000/svg">
  <circle cx="16" cy="16" r="14" stroke="#4CAF50" stroke-width="2"/>
  <circle cx="16" cy="16" r="2" fill="#4CAF50"/>
  <rect x="15" y="4" width="2" height="8" rx="1" fill="#4CAF50" transform="rotate(0 16 16)"/>
  <rect x="15" y="4" width="2" height="8" rx="1" fill="#4CAF50" transform="rotate(45 16 16)"/>
  <rect x="15" y="4" width="2" height="8" rx="1" fill="#4CAF50" transform="rotate(90 16 16)"/>
  <rect x="15" y="4" width="2" height="8" rx="1" fill="#4CAF50" transform="rotate(135 16 16)"/>
  <rect x="15" y="4" width="2" height="8" rx="1" fill="#4CAF50" transform="rotate(180 16 16)"/>
  <rect x="15" y="4" width="2" height="8" rx="1" fill="#4CAF50" transform="rotate(225 16 16)"/>
  <rect x="15" y="4" width="2" height="8" rx="1" fill="#4CAF50" transform="rotate(270 16 16)"/>
  <rect x="15" y="4" width="2" height="8" rx="1" fill="#4CAF50" transform="rotate(315 16 16)"/>
</svg>
